<mxfile host="app.diagrams.net" modified="2022-02-10T02:35:12.515Z" agent="5.0 (Windows NT 10.0; Win64; x64) AppleWebKit/537.36 (KHTML, like Gecko) Chrome/98.0.4758.80 Safari/537.36 Edg/98.0.1108.43" etag="54Icenk7hHEmHKkWxyQR" version="16.5.5" type="github">
  <diagram id="UOJdwzbtwYN2rPoAhhm7" name="Page-1">
    <mxGraphModel dx="2190" dy="1891" grid="1" gridSize="10" guides="1" tooltips="1" connect="1" arrows="1" fold="1" page="1" pageScale="1" pageWidth="827" pageHeight="1169" math="0" shadow="0">
      <root>
        <mxCell id="0" />
        <mxCell id="1" parent="0" />
        <mxCell id="0EoxK94FhnO9HcPfSLpR-15" value="" style="rounded=0;whiteSpace=wrap;html=1;dashed=1;strokeWidth=0;" vertex="1" parent="1">
          <mxGeometry x="-370" y="290" width="690" height="335" as="geometry" />
        </mxCell>
        <mxCell id="0EoxK94FhnO9HcPfSLpR-10" value="" style="edgeStyle=orthogonalEdgeStyle;rounded=0;orthogonalLoop=1;jettySize=auto;html=1;" edge="1" parent="1" source="0EoxK94FhnO9HcPfSLpR-1" target="0EoxK94FhnO9HcPfSLpR-9">
          <mxGeometry relative="1" as="geometry" />
        </mxCell>
        <mxCell id="0EoxK94FhnO9HcPfSLpR-1" value="安全事件引擎&lt;br&gt;Incident" style="rounded=1;whiteSpace=wrap;html=1;fillColor=#dae8fc;strokeColor=#6c8ebf;" vertex="1" parent="1">
          <mxGeometry x="-290" y="421" width="120" height="60" as="geometry" />
        </mxCell>
        <mxCell id="0EoxK94FhnO9HcPfSLpR-3" value="Tomcat" style="text;html=1;strokeColor=none;fillColor=none;align=center;verticalAlign=middle;whiteSpace=wrap;rounded=0;" vertex="1" parent="1">
          <mxGeometry x="70" y="325" width="60" height="30" as="geometry" />
        </mxCell>
        <mxCell id="0EoxK94FhnO9HcPfSLpR-4" value="" style="rounded=1;whiteSpace=wrap;html=1;" vertex="1" parent="1">
          <mxGeometry x="80" y="350" width="140" height="190" as="geometry" />
        </mxCell>
        <mxCell id="0EoxK94FhnO9HcPfSLpR-5" value="Integration webapp" style="rounded=1;whiteSpace=wrap;html=1;fillColor=#dae8fc;strokeColor=#6c8ebf;" vertex="1" parent="1">
          <mxGeometry x="90" y="361" width="120" height="60" as="geometry" />
        </mxCell>
        <mxCell id="0EoxK94FhnO9HcPfSLpR-6" value="Other webapps..." style="rounded=1;whiteSpace=wrap;html=1;fillColor=#dae8fc;strokeColor=#6c8ebf;" vertex="1" parent="1">
          <mxGeometry x="90" y="470" width="120" height="60" as="geometry" />
        </mxCell>
        <mxCell id="0EoxK94FhnO9HcPfSLpR-7" value="......" style="text;html=1;strokeColor=none;fillColor=none;align=center;verticalAlign=middle;whiteSpace=wrap;rounded=0;" vertex="1" parent="1">
          <mxGeometry x="120" y="430" width="60" height="30" as="geometry" />
        </mxCell>
        <mxCell id="0EoxK94FhnO9HcPfSLpR-12" value="" style="edgeStyle=orthogonalEdgeStyle;rounded=0;orthogonalLoop=1;jettySize=auto;html=1;entryX=0;entryY=0.5;entryDx=0;entryDy=0;curved=1;" edge="1" parent="1" source="0EoxK94FhnO9HcPfSLpR-9" target="0EoxK94FhnO9HcPfSLpR-5">
          <mxGeometry relative="1" as="geometry" />
        </mxCell>
        <mxCell id="0EoxK94FhnO9HcPfSLpR-9" value="Kafka" style="rounded=1;whiteSpace=wrap;html=1;fillColor=#d5e8d4;strokeColor=#82b366;" vertex="1" parent="1">
          <mxGeometry x="-80" y="438" width="60" height="26" as="geometry" />
        </mxCell>
        <mxCell id="0EoxK94FhnO9HcPfSLpR-11" value="①创建安全事件/合并告警" style="text;html=1;strokeColor=none;fillColor=none;align=center;verticalAlign=middle;whiteSpace=wrap;rounded=0;" vertex="1" parent="1">
          <mxGeometry x="-170" y="408" width="140" height="30" as="geometry" />
        </mxCell>
        <mxCell id="0EoxK94FhnO9HcPfSLpR-14" value="" style="endArrow=none;dashed=1;html=1;strokeWidth=2;rounded=0;curved=1;" edge="1" parent="1">
          <mxGeometry width="50" height="50" relative="1" as="geometry">
            <mxPoint x="-360" y="290" as="sourcePoint" />
            <mxPoint x="320" y="290" as="targetPoint" />
          </mxGeometry>
        </mxCell>
        <mxCell id="0EoxK94FhnO9HcPfSLpR-16" value="下级本脑" style="text;html=1;strokeColor=none;fillColor=none;align=center;verticalAlign=middle;whiteSpace=wrap;rounded=0;dashed=1;fontSize=18;" vertex="1" parent="1">
          <mxGeometry x="-360" y="305" width="110" height="30" as="geometry" />
        </mxCell>
        <mxCell id="0EoxK94FhnO9HcPfSLpR-17" value="" style="rounded=0;whiteSpace=wrap;html=1;dashed=1;strokeWidth=0;fillColor=#f5f5f5;fontColor=#333333;strokeColor=#666666;" vertex="1" parent="1">
          <mxGeometry x="-370" y="-50" width="690" height="335" as="geometry" />
        </mxCell>
        <mxCell id="0EoxK94FhnO9HcPfSLpR-18" value="安全运营中心&lt;br&gt;/上级本脑" style="text;html=1;strokeColor=none;fillColor=none;align=center;verticalAlign=middle;whiteSpace=wrap;rounded=0;dashed=1;fontSize=18;" vertex="1" parent="1">
          <mxGeometry x="-360" y="-30" width="160" height="30" as="geometry" />
        </mxCell>
        <mxCell id="0EoxK94FhnO9HcPfSLpR-21" value="Tomcat" style="text;html=1;strokeColor=none;fillColor=none;align=center;verticalAlign=middle;whiteSpace=wrap;rounded=0;" vertex="1" parent="1">
          <mxGeometry x="-140" y="10" width="60" height="30" as="geometry" />
        </mxCell>
        <mxCell id="0EoxK94FhnO9HcPfSLpR-22" value="" style="rounded=1;whiteSpace=wrap;html=1;" vertex="1" parent="1">
          <mxGeometry x="-130" y="35" width="140" height="190" as="geometry" />
        </mxCell>
        <mxCell id="0EoxK94FhnO9HcPfSLpR-27" value="" style="edgeStyle=orthogonalEdgeStyle;curved=1;rounded=0;orthogonalLoop=1;jettySize=auto;html=1;fontSize=18;" edge="1" parent="1" source="0EoxK94FhnO9HcPfSLpR-23" target="0EoxK94FhnO9HcPfSLpR-26">
          <mxGeometry relative="1" as="geometry" />
        </mxCell>
        <mxCell id="0EoxK94FhnO9HcPfSLpR-23" value="ROOT webapp" style="rounded=1;whiteSpace=wrap;html=1;fillColor=#dae8fc;strokeColor=#6c8ebf;" vertex="1" parent="1">
          <mxGeometry x="-120" y="46" width="120" height="60" as="geometry" />
        </mxCell>
        <mxCell id="0EoxK94FhnO9HcPfSLpR-24" value="Other webapps..." style="rounded=1;whiteSpace=wrap;html=1;fillColor=#dae8fc;strokeColor=#6c8ebf;" vertex="1" parent="1">
          <mxGeometry x="-120" y="155" width="120" height="60" as="geometry" />
        </mxCell>
        <mxCell id="0EoxK94FhnO9HcPfSLpR-25" value="......" style="text;html=1;strokeColor=none;fillColor=none;align=center;verticalAlign=middle;whiteSpace=wrap;rounded=0;" vertex="1" parent="1">
          <mxGeometry x="-90" y="115" width="60" height="30" as="geometry" />
        </mxCell>
        <mxCell id="0EoxK94FhnO9HcPfSLpR-26" value="ES" style="shape=cylinder3;whiteSpace=wrap;html=1;boundedLbl=1;backgroundOutline=1;size=15;fontSize=18;strokeWidth=1;fillColor=#dae8fc;strokeColor=#6c8ebf;" vertex="1" parent="1">
          <mxGeometry x="-290" y="106" width="80" height="70" as="geometry" />
        </mxCell>
        <mxCell id="0EoxK94FhnO9HcPfSLpR-28" value="⑤进本地存储" style="text;html=1;strokeColor=none;fillColor=none;align=center;verticalAlign=middle;whiteSpace=wrap;rounded=0;" vertex="1" parent="1">
          <mxGeometry x="-320" y="80" width="140" height="30" as="geometry" />
        </mxCell>
        <mxCell id="0EoxK94FhnO9HcPfSLpR-29" value="②https请求" style="text;html=1;strokeColor=none;fillColor=none;align=center;verticalAlign=middle;whiteSpace=wrap;rounded=0;" vertex="1" parent="1">
          <mxGeometry x="40" y="260" width="140" height="30" as="geometry" />
        </mxCell>
        <mxCell id="0EoxK94FhnO9HcPfSLpR-30" value="" style="rounded=1;whiteSpace=wrap;html=1;" vertex="1" parent="1">
          <mxGeometry x="80" y="140" width="140" height="85" as="geometry" />
        </mxCell>
        <mxCell id="0EoxK94FhnO9HcPfSLpR-31" value="Docker" style="text;html=1;strokeColor=none;fillColor=none;align=center;verticalAlign=middle;whiteSpace=wrap;rounded=0;" vertex="1" parent="1">
          <mxGeometry x="70" y="110" width="60" height="30" as="geometry" />
        </mxCell>
        <mxCell id="0EoxK94FhnO9HcPfSLpR-34" value="" style="edgeStyle=orthogonalEdgeStyle;curved=1;rounded=0;orthogonalLoop=1;jettySize=auto;html=1;fontSize=18;entryX=1;entryY=0.5;entryDx=0;entryDy=0;" edge="1" parent="1" source="0EoxK94FhnO9HcPfSLpR-32" target="0EoxK94FhnO9HcPfSLpR-23">
          <mxGeometry relative="1" as="geometry" />
        </mxCell>
        <mxCell id="0EoxK94FhnO9HcPfSLpR-32" value="MDR Server" style="rounded=1;whiteSpace=wrap;html=1;fillColor=#dae8fc;strokeColor=#6c8ebf;" vertex="1" parent="1">
          <mxGeometry x="90" y="155" width="120" height="60" as="geometry" />
        </mxCell>
        <mxCell id="0EoxK94FhnO9HcPfSLpR-20" value="" style="shape=flexArrow;endArrow=classic;html=1;rounded=0;fontSize=18;curved=1;fillColor=#ffe6cc;strokeColor=#d79b00;entryX=0.5;entryY=1;entryDx=0;entryDy=0;exitX=0.5;exitY=0;exitDx=0;exitDy=0;" edge="1" parent="1" source="0EoxK94FhnO9HcPfSLpR-4" target="0EoxK94FhnO9HcPfSLpR-30">
          <mxGeometry width="50" height="50" relative="1" as="geometry">
            <mxPoint x="150" y="340" as="sourcePoint" />
            <mxPoint x="150" y="240" as="targetPoint" />
          </mxGeometry>
        </mxCell>
        <mxCell id="0EoxK94FhnO9HcPfSLpR-35" value="③请求中转, http" style="text;html=1;strokeColor=none;fillColor=none;align=center;verticalAlign=middle;whiteSpace=wrap;rounded=0;" vertex="1" parent="1">
          <mxGeometry x="10" y="70" width="140" height="30" as="geometry" />
        </mxCell>
        <mxCell id="0EoxK94FhnO9HcPfSLpR-36" value="④token校验，数据解包" style="text;html=1;strokeColor=none;fillColor=none;align=center;verticalAlign=middle;whiteSpace=wrap;rounded=0;" vertex="1" parent="1">
          <mxGeometry x="-130" y="102.5" width="140" height="30" as="geometry" />
        </mxCell>
      </root>
    </mxGraphModel>
  </diagram>
</mxfile>
